<?xml version="1.0" encoding="UTF-8"?>
<svg width="11px" height="11px" viewBox="0 0 11 11" version="1.1" xmlns="http://www.w3.org/2000/svg" xmlns:xlink="http://www.w3.org/1999/xlink">
    <!-- Generator: Sketch 61.2 (89653) - https://sketch.com -->
    <title>close</title>
    <desc>Created with Sketch.</desc>
    <g id="D-设备控制、设备属性" stroke="none" stroke-width="1" fill="none" fill-rule="evenodd">
        <g id="icon" transform="translate(-807.000000, -400.000000)" fill="#FFFFFF" fill-rule="nonzero">
            <path d="M817.764286,400.235714 C818.078571,400.55 818.078571,401.021429 817.764286,401.257143 L813.521429,405.5 L817.764286,409.742857 C818.078571,410.057143 818.078571,410.528571 817.764286,410.764286 C817.45,411.078571 816.978571,411.078571 816.742857,410.764286 L812.5,406.521429 L808.257143,410.764286 C807.942857,411.078571 807.471429,411.078571 807.235714,410.764286 C806.921429,410.45 806.921429,409.978571 807.235714,409.742857 L811.478571,405.5 L807.235714,401.257143 C806.921429,400.942857 806.921429,400.471429 807.235714,400.235714 C807.55,400 808.021429,399.921429 808.257143,400.235714 L812.5,404.478571 L816.742857,400.235714 C816.978571,399.921429 817.528571,399.921429 817.764286,400.235714 Z" id="close"></path>
        </g>
    </g>
</svg>