<?xml version="1.0" encoding="UTF-8"?>
<svg width="204px" height="204px" viewBox="0 0 204 204" version="1.1" xmlns="http://www.w3.org/2000/svg" xmlns:xlink="http://www.w3.org/1999/xlink">
    <!-- Generator: Sketch 61.2 (89653) - https://sketch.com -->
    <title>风机工作</title>
    <desc>Created with Sketch.</desc>
    <defs>
        <circle id="path-1" cx="102" cy="102" r="102"></circle>
        <mask id="mask-2" maskContentUnits="userSpaceOnUse" maskUnits="objectBoundingBox" x="0" y="0" width="204" height="204" fill="white">
            <use xlink:href="#path-1"></use>
        </mask>
    </defs>
    <g id="D-设备控制、设备属性" stroke="none" stroke-width="1" fill="none" fill-rule="evenodd">
        <g id="icon" transform="translate(-419.000000, -81.000000)">
            <g id="风机工作" transform="translate(419.000000, 81.000000)">
                <use id="椭圆形" stroke="#E53F5B" mask="url(#mask-2)" stroke-width="2" stroke-dasharray="2,2" xlink:href="#path-1"></use>
                <circle id="椭圆形" fill-opacity="0.1" fill="#E53F5B" cx="101.523364" cy="101.523364" r="92.5233645"></circle>
                <path d="M92.1625399,127.085695 C97.7435861,129.296056 103.906414,129.562585 109.657453,127.842311 L109.657453,127.842311 L109.948728,128.892089 C111.041745,132.733786 112.409497,136.492469 114.041598,140.138998 L114.041598,140.138998 L114.421418,140.971175 C117.998218,148.702196 122.459662,155.420931 127.330011,160.776014 C119.333868,164.228567 110.715194,166.006433 102.005482,165.999983 L102.005482,165.999983 L101.384239,165.988647 C100.560449,165.96015 99.752661,165.885047 98.9350474,165.846448 C94.5772196,157.267062 91.8993596,145.891481 91.8993596,133.362332 C91.8993596,131.228451 92.0134044,129.147204 92.1625399,127.085695 Z M77.1173862,112.396346 C79.4849565,118.021529 83.6838892,122.681701 89.0328797,125.620711 L89.0328797,125.620711 L88.5037844,126.583667 C86.7613169,129.804659 85.2310144,133.136408 83.9227947,136.557675 L83.9227947,136.557675 L83.5992039,137.424467 C80.5230713,145.799917 78.951468,154.062654 78.7140208,161.558944 C69.5602357,157.966808 61.3564438,152.315445 54.7382916,145.042749 L54.7382916,145.042749 L54.9212223,144.453408 C57.8569556,135.202109 64.0705504,125.107202 73.0534529,116.124607 C74.3781273,114.80875 75.7488583,113.602548 77.1173961,112.396346 Z M125.386865,115.378954 L126.309354,115.911109 C130.012317,118.015916 133.871386,119.834502 137.852839,121.350751 L137.852839,121.350751 L138.712118,121.672069 C146.442802,124.516315 154.090675,126.076713 161.126754,126.486979 C157.384615,135.458117 151.650222,143.460193 144.35778,149.887297 L144.35778,149.887297 L143.752041,149.671474 C135.055373,146.513022 125.752077,140.563405 117.408114,132.219727 C115.655771,130.469638 114.008701,128.673493 112.473482,126.851032 C117.91649,124.541681 122.452513,120.511958 125.386865,115.378954 L125.386865,115.378954 Z M71.9151982,90.6254973 C73.8035171,90.6254973 75.6370069,90.7417313 77.4704966,90.8601584 C74.8836597,96.4783622 74.3406441,102.823665 75.9352779,108.799672 L75.9352779,108.799672 C72.2559879,109.877399 68.6536412,111.203688 65.1548559,112.771999 L65.1548559,112.771999 L64.3383201,113.143614 C55.9405547,117.018387 48.7812055,121.96257 43.2231656,127.312213 C39.7723867,119.321257 37.9948166,110.708273 38.0000114,102.004122 L38.0000114,102.004122 C38.0000114,100.748822 38.1184558,99.5250749 38.1886372,98.2903627 C46.8911339,93.5532785 58.7824991,90.6254973 71.9151982,90.6254973 Z M102.405063,86.6075949 C110.682352,86.6075949 117.392405,93.3176476 117.392405,101.594937 L117.392405,101.594937 C117.391188,109.871849 110.684164,116.579837 102.409485,116.582278 L102.409485,116.582278 C94.1277742,116.582278 87.4177215,109.872226 87.4177215,101.594937 C87.4177215,93.3176476 94.1277742,86.6075949 102.405063,86.6075949 Z M161.464635,78.436277 C164.451765,85.9259882 165.990766,93.9141377 166,101.977247 C166,103.687568 165.877182,105.35432 165.745592,107.021072 C157.34356,110.970835 146.498336,113.361309 134.637675,113.361309 C131.896214,113.361309 129.224933,113.209985 126.610675,112.966552 C129.028739,107.600926 129.599498,101.585027 128.23362,95.860414 L128.23362,95.860414 L129.273156,95.5832561 C133.423599,94.4480075 137.480629,92.9936688 141.407968,91.2329836 L141.407968,91.2329836 L142.241042,90.8532635 C149.703186,87.4042602 156.202776,83.1099181 161.464503,78.436277 Z M127.81032,43.4673884 C136.827032,47.446605 144.805344,53.4502232 151.125905,61.0121448 L151.125905,61.0121448 L150.909656,61.6159065 C147.74554,70.2841277 141.808969,79.552911 133.495012,87.8665836 C131.543091,89.8184377 129.534148,91.6080029 127.496693,93.2944977 C125.568437,87.6524769 121.826737,82.8074047 116.855435,79.5152847 L116.855435,79.5152847 L117.409314,78.5442245 C119.41605,74.9705306 121.156696,71.253259 122.616893,67.4225625 L122.616893,67.4225625 L122.936839,66.567273 C125.874739,58.5871507 127.463043,50.6858457 127.81032,43.4673884 Z M60.3155302,53.4985937 L60.9032296,53.6823038 C70.128635,56.6296656 80.1875138,62.827703 89.1403516,71.7802348 C90.6646044,73.3044355 92.0704261,74.8724981 93.4323843,76.4515262 C87.5781789,78.4209689 82.5760636,82.3376823 79.2601229,87.5485848 L79.2601229,87.5485848 L78.2351575,86.9939292 C75.149063,85.3515098 71.9630281,83.9033346 68.695631,82.6579789 L68.695631,82.6579789 L67.8556117,82.3437726 C59.178843,79.149548 50.6163065,77.5828839 42.9017642,77.4384138 C46.7591546,68.2092798 52.7227115,60.0107687 60.3155302,53.4985937 L60.3155302,53.4985937 Z M101.998902,38 L102.955013,38.0098588 C104.544807,38.0420952 106.116578,38.150227 107.679212,38.2872954 C111.997562,46.8513296 114.649104,58.1742767 114.649104,70.6376331 C114.644718,73.1596918 114.538715,75.6276469 114.331095,78.0415203 C110.520112,76.0674128 106.29087,75.0370266 101.998903,75.0369807 L101.998903,75.0369807 L101.336377,75.0461303 C99.7912079,75.086349 98.251906,75.2585759 96.7352961,75.5611303 L96.7352961,75.5611303 L96.4231075,74.4731078 C95.3580401,70.8539227 94.0489528,67.3106159 92.5046743,63.8675572 L92.5046743,63.8675572 L92.1337074,63.0533682 C88.3906868,54.949394 83.652756,47.9846643 78.5122496,42.5090024 C85.9862643,39.5368264 93.9555625,38.0068702 101.998902,38 L101.998902,38 Z" id="形状结合" fill="#E53F5B" fill-rule="nonzero"></path>
            </g>
        </g>
    </g>
</svg>