<?xml version="1.0" encoding="UTF-8"?>
<svg width="56px" height="56px" viewBox="0 0 56 56" version="1.1" xmlns="http://www.w3.org/2000/svg" xmlns:xlink="http://www.w3.org/1999/xlink">
    <!-- Generator: Sketch 61.2 (89653) - https://sketch.com -->
    <title>fan</title>
    <desc>Created with Sketch.</desc>
    <g id="D-设备控制、设备属性" stroke="none" stroke-width="1" fill="none" fill-rule="evenodd">
        <g id="icon" transform="translate(-183.000000, -509.000000)">
            <g id="fan" transform="translate(183.000000, 509.000000)">
                <circle id="Oval-13-Copy-9备份-2" stroke="#D7D7D7" fill="#FFFFFF" cx="28" cy="28" r="27.5"></circle>
                <path d="M39.8231984,31.619685 C39.4680043,30.3097862 38.615268,29.2111892 37.4358212,28.5351612 C36.384186,27.9294869 34.3379172,27.5492469 31.1832543,27.3661417 C31.1120976,27.2393607 31.0410796,27.1126828 30.9558372,27 C32.3627012,24.2253625 33.0447792,22.2815929 33.0447792,21.0704506 C33.0447792,18.2675822 30.7569035,16 27.9289512,16 C25.1009988,16 22.8131232,18.2675822 22.8131232,21.0704506 C22.8131232,22.323922 23.5521335,24.3521435 25.0442399,27.2816554 C25.0299808,27.3098863 25.0157564,27.3379452 25.001532,27.3520435 C21.761592,27.5351487 19.6442012,27.9155262 18.5642212,28.5351612 C17.3847744,29.1971941 16.5320728,30.295688 16.1768787,31.6055868 C15.8215112,32.9154512 16.0063939,34.2816398 16.6884719,35.4647231 C17.6405016,37.0986064 19.3742495,38 21.1363076,38 C22.0032336,38 22.8842799,37.7746344 23.6800492,37.3238345 C24.7600292,36.7183321 26.1241852,35.1407386 27.9289512,32.4083958 L28.0853503,32.4083958 C29.8616328,35.0985814 31.2542723,36.7183321 32.3342176,37.3238345 C33.1157972,37.7605362 33.9825844,38 34.8778552,38 C36.71107,38 38.4163344,37.0280808 39.3116052,35.4788214 C39.9936832,34.295738 40.1783924,32.9295494 39.8231984,31.619685 Z M24.532612,21.056318 C24.532612,19.1972066 26.0674263,17.6760405 27.9431756,17.6760405 C29.8189248,17.6760405 31.3537392,19.1972066 31.3537392,21.056318 C31.3537392,21.577506 31.1120976,22.8732721 29.6342156,25.8449756 C29.1653303,25.6197132 28.6537371,25.4929321 28.099436,25.4929321 C27.4458068,25.4929321 26.8347468,25.676003 26.3231536,25.9858893 C24.788478,22.9154637 24.532612,21.5914667 24.532612,21.056318 Z M22.841572,35.8449975 C21.22155,36.7746219 19.132608,36.225375 18.1805783,34.6056243 C17.725744,33.8309774 17.5979671,32.9154512 17.8394699,32.0422541 C18.0810768,31.1690226 18.6494636,30.4365673 19.4310431,29.9859393 C19.9000672,29.7182446 21.1789808,29.2817148 24.6178544,29.0563148 C24.6605624,30.2393982 25.2999671,31.2676072 26.2379111,31.8591832 C24.4189208,34.5632952 23.3958731,35.5351112 22.841572,35.8449975 Z M27.1758552,30.4365673 C26.6784864,30.1267154 26.337378,29.5915667 26.3231536,28.9718285 L26.3231536,28.9435976 C26.3231536,28.3379577 26.6357784,27.8028434 27.1046984,27.4929571 C27.3890132,27.295788 27.7300175,27.1830709 28.099436,27.1830709 C28.3695264,27.1830709 28.6252536,27.2393607 28.8526708,27.3520435 C29.4495064,27.6337333 29.8758572,28.2393732 29.8758572,28.9435976 L29.8758572,28.9859268 C29.8616328,29.6478565 29.4637308,30.2252999 28.8952399,30.5069553 C28.6537371,30.6337708 28.3837508,30.7041588 28.099436,30.7041588 C27.7584664,30.7041588 27.4458068,30.6055743 27.1758552,30.4365673 Z M37.8337232,34.6197225 C37.2368876,35.647794 36.0999752,36.295763 34.8778552,36.295763 C34.2810196,36.295763 33.7126328,36.1407511 33.1868152,35.8449975 C32.6326528,35.5351112 31.6094664,34.5773934 29.8331839,31.9436695 C30.8421459,31.3662261 31.5384484,30.3097862 31.5811216,29.0845113 C34.906304,29.3097737 36.1284588,29.7464411 36.5831196,29.9999 C37.3648032,30.4506999 37.93319,31.1829833 38.1746928,32.0563523 C38.4163344,32.9295494 38.2884187,33.8450756 37.8337232,34.6197225 Z" id="Fill-1" fill="#E53F5B"></path>
            </g>
        </g>
    </g>
</svg>