<?xml version="1.0" encoding="UTF-8"?>
<svg width="56px" height="56px" viewBox="0 0 56 56" version="1.1" xmlns="http://www.w3.org/2000/svg" xmlns:xlink="http://www.w3.org/1999/xlink">
    <!-- Generator: Sketch 61.2 (89653) - https://sketch.com -->
    <title>Keep-on</title>
    <desc>Created with Sketch.</desc>
    <g id="D-设备控制、设备属性" stroke="none" stroke-width="1" fill="none" fill-rule="evenodd">
        <g id="icon" transform="translate(-563.000000, -585.000000)">
            <g id="Keep-on" transform="translate(563.000000, 585.000000)">
                <circle id="Oval-13-Copy-9备份-10" stroke="#E53F5B" fill="#E53F5B" cx="28" cy="28" r="27.5"></circle>
                <path d="M41.2774942,32.1798215 C41.4691556,32.1798215 41.6528723,32.2559682 41.7884135,32.3914079 C41.9238532,32.5269492 42,32.7106659 42,32.9023273 C41.9943398,35.0488028 40.2556555,36.7874871 38.1090784,36.7931473 L38.1090784,36.7931473 L17.8806164,36.7931473 C15.7357146,36.7874871 14,35.0471276 14,32.9023273 C14,32.5032421 14.3234207,32.1798215 14.7224043,32.1798215 C15.1214894,32.1798215 15.4449101,32.5032421 15.4449101,32.9023273 C15.4449101,34.2491857 16.5337579,35.3426024 17.8806164,35.3482372 L17.8806164,35.3482372 L38.1090784,35.3482372 C39.4559115,35.3426024 40.5447847,34.2491857 40.5447847,32.9023273 C40.5447847,32.7088891 40.6223021,32.5235733 40.7600262,32.3877529 C40.8977503,32.2520086 41.0841576,32.1770548 41.2774942,32.1798215 Z M25.4779759,24.9731755 C25.7006544,24.842 25.9763057,24.8396141 26.2012686,24.9668299 C27.2848877,25.6066404 27.4912962,27.3199424 26.7069338,28.8370142 C26.4622235,29.2449324 26.3371144,29.7134126 26.3457443,30.1890253 C26.3323425,30.4174655 26.4327801,30.6376819 26.6140348,30.7772843 C26.792802,30.8725693 26.9241805,31.0375539 26.9769248,31.2329719 C27.0296691,31.4284914 26.9992358,31.6371081 26.8927319,31.8094282 C26.7629524,32.0340866 26.5227094,32.1720137 26.2631505,32.1706177 C26.1377114,32.1739935 26.0134907,32.1456416 25.9019357,32.0880238 C25.2702476,31.7234585 24.8779141,31.0525295 24.8698933,30.3231705 C24.837074,29.5721096 25.0196993,28.8272167 25.3962704,28.1764919 C25.9225714,27.2579589 25.7987314,26.4013079 25.4890933,26.2259165 C25.2642066,26.0987261 25.1241981,25.8611482 25.1219391,25.6027823 C25.1196547,25.3443909 25.2553736,25.104351 25.4779759,24.9731755 Z M29.6118418,24.9731755 C29.8345203,24.842 30.1101715,24.8396141 30.3351344,24.9668299 C31.4187535,25.6066404 31.625162,27.3199424 30.8407996,28.8370142 C30.5960893,29.2449324 30.4709802,29.7134126 30.4796102,30.1890253 C30.4662084,30.4174655 30.5666459,30.6376819 30.7479006,30.7772843 C30.9266678,30.8725693 31.0580463,31.0375539 31.1107907,31.2329719 C31.163535,31.4284914 31.1331017,31.6371081 31.0265977,31.8094282 C30.8968183,32.0340866 30.6565753,32.1720137 30.3970163,32.1706177 C30.2715773,32.1739935 30.1473565,32.1456416 30.0358015,32.0880238 C29.4041134,31.7234585 29.0117799,31.0525295 29.0037591,30.3231705 C28.9709399,29.5721096 29.1535652,28.8272167 29.5301363,28.1764919 C30.0564373,27.2579589 29.9325973,26.4013079 29.6229592,26.2259165 C29.3980724,26.0987261 29.2580639,25.8611482 29.2558049,25.6027823 C29.2535205,25.3443909 29.3892394,25.104351 29.6118418,24.9731755 Z M26.6582053,15.3690643 C27.4702343,14.8769786 28.4884941,14.8769786 29.3005485,15.3690643 C30.1125775,15.86115 30.5837229,16.7637937 30.5233385,17.7113639 L30.5233385,17.7113639 L30.5233385,18.4131578 C35.9097316,19.6154389 39.7425533,24.391465 39.7500918,29.9104043 C39.7500918,30.3093879 39.4266711,30.632884 39.027586,30.632884 C38.6286277,30.632884 38.3051817,30.3093879 38.3051817,29.9104043 C38.3051817,24.2104134 33.6844442,19.5897521 27.9845295,19.5897521 C22.2845387,19.5897521 17.6638773,24.2104134 17.6638773,29.9104043 C17.6583186,30.3071035 17.3380707,30.6272752 16.9413715,30.632884 C16.7480349,30.6356006 16.5616277,30.5607483 16.4239036,30.4249025 C16.2860779,30.2891582 16.2086621,30.1037663 16.2086621,29.9104043 C16.2160991,24.391465 20.0489968,19.6154389 25.4352884,18.4131578 L25.4352884,18.4131578 L25.4352884,17.7113639 C25.3749294,16.7637937 25.8461763,15.86115 26.6582053,15.3690643 Z M28.5723825,16.6666304 C28.2155588,16.4450433 27.7638308,16.4450433 27.4069818,16.6666304 C27.050158,16.888319 26.8499682,17.2932674 26.8905037,17.7113639 L26.8905037,17.7113639 L26.8905037,18.1654778 C27.2517185,18.1138249 27.6026028,18.1138249 27.9845295,18.1138249 C28.3663547,18.1138249 28.7275442,18.1654778 29.0888605,18.1654778 L29.0888605,18.1654778 L29.0888605,17.7113639 C29.129396,17.2932674 28.9292316,16.888319 28.5723825,16.6666304 Z" id="形状结合备份-2" fill="#FFFFFF"></path>
            </g>
        </g>
    </g>
</svg>