<?xml version="1.0" encoding="UTF-8"?>
<svg width="56px" height="56px" viewBox="0 0 56 56" version="1.1" xmlns="http://www.w3.org/2000/svg" xmlns:xlink="http://www.w3.org/1999/xlink">
    <!-- Generator: Sketch 61.2 (89653) - https://sketch.com -->
    <title>lamp-on</title>
    <desc>Created with Sketch.</desc>
    <g id="D-设备控制、设备属性" stroke="none" stroke-width="1" fill="none" fill-rule="evenodd">
        <g id="icon" transform="translate(-259.000000, -585.000000)">
            <g id="lamp-on" transform="translate(259.000000, 585.000000)">
                <circle id="Oval-13-Copy-9备份-7" stroke="#E53F5B" fill="#E53F5B" cx="28" cy="28" r="27.5"></circle>
                <path d="M19.7663809,18.9755709 C19.4274606,18.6366507 18.8787324,18.6366507 18.5398148,18.9755709 C18.2008945,19.3144912 18.2008945,19.8632196 18.5398148,20.2021372 L19.7663809,21.4287034 C20.1053012,21.7676237 20.6540294,21.7676237 20.992947,21.4287034 C21.3318673,21.0897831 21.3318673,20.5410548 20.992947,20.2021372 L19.7663809,18.9755709 L19.7663809,18.9755709 L19.7663809,18.9755709 L19.7663809,18.9755709 Z M36.2335951,18.9755709 L35.007029,20.2021372 C34.6681087,20.5410575 34.6681087,21.0897858 35.007029,21.4287034 C35.3459492,21.7676237 35.8946775,21.7676237 36.2335951,21.4287034 L37.4601612,20.2021372 C37.7990815,19.8632169 37.7990815,19.3144886 37.4601612,18.9755709 C37.1212409,18.6366507 36.5725127,18.6366507 36.2335951,18.9755709 L36.2335951,18.9755709 L36.2335951,18.9755709 L36.2335951,18.9755709 L36.2335951,18.9755709 Z M17.5983868,25.8346752 L15.8661298,25.8346752 C15.3873393,25.8346752 15,26.2220119 15,26.7008051 C15,27.1795957 15.3873367,27.566935 15.8661298,27.566935 L17.5983868,27.566935 C18.0771773,27.566935 18.4645167,27.1795983 18.4645167,26.7008051 C18.4645167,26.2220146 18.07718,25.8346752 17.5983868,25.8346752 L17.5983868,25.8346752 L17.5983868,25.8346752 L17.5983868,25.8346752 Z M40.1338702,25.8346752 L38.4016132,25.8346752 C37.9228227,25.8346752 37.5354833,26.2220119 37.5354833,26.7008051 C37.5354833,27.1795957 37.92282,27.566935 38.4016132,27.566935 L40.1338702,27.566935 C40.6126607,27.566935 41,27.1795983 41,26.7008051 C41,26.2220146 40.6126633,25.8346752 40.1338702,25.8346752 L40.1338702,25.8346752 L40.1338702,25.8346752 L40.1338702,25.8346752 L40.1338702,25.8346752 Z M27.1311913,15.8661299 L27.1311913,17.5983871 C27.1311913,18.0771776 27.518528,18.464517 27.9973212,18.464517 C28.4761117,18.464517 28.863451,18.0771803 28.863451,17.5983871 L28.863451,15.8661299 C28.863451,15.3873394 28.4761143,15 27.9973212,15 C27.5185307,15 27.1311913,15.3873367 27.1311913,15.8661299 L27.1311913,15.8661299 L27.1311913,15.8661299 L27.1311913,15.8661299 Z M21.9344284,27.9973038 C21.9344284,24.6457673 24.6511614,21.929034 28.0026975,21.929034 C31.3542336,21.929034 34.0709667,24.6457673 34.0709667,27.9973038 C34.0709667,31.3488403 31.3542336,34.0655736 28.0026975,34.0655736 C24.6511614,34.0655736 21.9344284,31.3488403 21.9344284,27.9973038 L21.9344284,27.9973038 L21.9344284,27.9973038 L21.9344284,27.9973038 Z M20.2021714,27.9973038 C20.2021714,32.3064374 23.6935884,35.7978548 28.0027215,35.7978548 C32.3118547,35.7978548 35.8032717,32.3064374 35.8032717,27.9973038 C35.8032717,23.6881702 32.3118547,20.1967528 28.0027215,20.1967528 C23.6935884,20.2021325 20.2021714,23.6935359 20.2021714,27.9973038 L20.2021714,27.9973038 L20.2021714,27.9973038 L20.2021714,27.9973038 L20.2021714,27.9973038 Z M26.2650749,40.1338701 C26.2650749,40.6126606 26.6524115,41 27.1312047,41 L28.8634617,41 C29.3422522,41 29.7295915,40.6126633 29.7295915,40.1338701 C29.7295915,39.6550795 29.3422548,39.2677402 28.8634617,39.2677402 L27.1312047,39.2677402 C26.6524142,39.2677402 26.2650749,39.6550769 26.2650749,40.1338701 L26.2650749,40.1338701 L26.2650749,40.1338701 L26.2650749,40.1338701 L26.2650749,40.1338701 Z M24.5328179,37.530104 C24.5328179,38.0088945 24.9201545,38.3962339 25.3989477,38.3962339 L30.601103,38.3962339 C31.0798935,38.3962339 31.4672329,38.0088972 31.4672329,37.530104 C31.4672329,37.0513134 31.0798962,36.663974 30.601103,36.663974 L25.3989477,36.663974 C24.9201572,36.663974 24.5328179,37.0513108 24.5328179,37.530104 L24.5328179,37.530104 L24.5328179,37.530104 L24.5328179,37.530104 Z" id="形状备份-3" fill="#FFFFFF" fill-rule="nonzero"></path>
            </g>
        </g>
    </g>
</svg>