<?xml version="1.0" encoding="UTF-8"?>
<svg width="56px" height="56px" viewBox="0 0 56 56" version="1.1" xmlns="http://www.w3.org/2000/svg" xmlns:xlink="http://www.w3.org/1999/xlink">
    <!-- Generator: Sketch 61.2 (89653) - https://sketch.com -->
    <title>lamp2-on</title>
    <desc>Created with Sketch.</desc>
    <g id="D-设备控制、设备属性" stroke="none" stroke-width="1" fill="none" fill-rule="evenodd">
        <g id="icon" transform="translate(-487.000000, -585.000000)">
            <g id="lamp2-on" transform="translate(487.000000, 585.000000)">
                <circle id="Oval-13-Copy-9备份-8" stroke="#E53F5B" fill="#E53F5B" cx="28" cy="28" r="27.5"></circle>
                <g id="编组-4备份" transform="translate(14.000000, 14.000000)">
                    <path d="M7.2193725,7.39164632 C6.94026171,7.11253552 6.48836783,7.11253552 6.20925923,7.39164632 C5.93014843,7.67075712 5.93014843,8.122651 6.20925923,8.4017596 L7.2193725,9.41187287 C7.4984833,9.69098367 7.95037718,9.69098367 8.22948578,9.41187287 C8.50859658,9.13276208 8.50859658,8.6808682 8.22948578,8.4017596 L7.2193725,7.39164632 L7.2193725,7.39164632 L7.2193725,7.39164632 L7.2193725,7.39164632 Z M20.7806077,7.39164632 L19.7704944,8.4017596 C19.4913836,8.68087039 19.4913836,9.13276428 19.7704944,9.41187287 C20.0496052,9.69098367 20.5014991,9.69098367 20.7806077,9.41187287 L21.790721,8.4017596 C22.0698318,8.1226488 22.0698318,7.67075492 21.790721,7.39164632 C21.5116102,7.11253552 21.0597163,7.11253552 20.7806077,7.39164632 L20.7806077,7.39164632 L20.7806077,7.39164632 L20.7806077,7.39164632 L20.7806077,7.39164632 Z M5.43396563,13.0403198 L4.00740104,13.0403198 C3.61310299,13.0403198 3.29411765,13.359303 3.29411765,13.7536032 C3.29411765,14.1479013 3.61310079,14.4668866 4.00740104,14.4668866 L5.43396563,14.4668866 C5.82826368,14.4668866 6.14724902,14.1479035 6.14724902,13.7536032 C6.14724902,13.3593052 5.82826588,13.0403198 5.43396563,13.0403198 L5.43396563,13.0403198 L5.43396563,13.0403198 L5.43396563,13.0403198 Z M23.992599,13.0403198 L22.5660344,13.0403198 C22.1717363,13.0403198 21.852751,13.359303 21.852751,13.7536032 C21.852751,14.1479013 22.1717341,14.4668866 22.5660344,14.4668866 L23.992599,14.4668866 C24.386897,14.4668866 24.7058824,14.1479035 24.7058824,13.7536032 C24.7058824,13.3593052 24.3868992,13.0403198 23.992599,13.0403198 L23.992599,13.0403198 L23.992599,13.0403198 L23.992599,13.0403198 L23.992599,13.0403198 Z M13.2845105,4.83093045 L13.2845105,6.25749504 C13.2845105,6.65179309 13.6034937,6.97077843 13.9977939,6.97077843 C14.392092,6.97077843 14.7110773,6.65179529 14.7110773,6.25749504 L14.7110773,4.83093045 C14.7110773,4.4366324 14.3920942,4.11764706 13.9977939,4.11764706 C13.6034959,4.11764706 13.2845105,4.4366302 13.2845105,4.83093045 L13.2845105,4.83093045 L13.2845105,4.83093045 L13.2845105,4.83093045 Z M9.00482335,14.8213079 C9.00482335,12.0612194 11.2421329,9.8239098 14.0022215,9.8239098 C16.7623101,9.8239098 18.9996196,12.0612194 18.9996196,14.8213079 C18.9996196,17.5813965 16.7623101,19.8187061 14.0022215,19.8187061 C11.2421329,19.8187061 9.00482335,17.5813965 9.00482335,14.8213079 L9.00482335,14.8213079 L9.00482335,14.8213079 L9.00482335,14.8213079 Z M7.57825877,14.8213079 C7.57825877,18.3700058 10.4535434,21.2452904 14.0022413,21.2452904 C17.5509391,21.2452904 20.4262238,18.3700058 20.4262238,14.8213079 C20.4262238,11.2726101 17.5509391,8.39732543 14.0022413,8.39732543 C10.4535434,8.40175573 7.57825877,11.2770288 7.57825877,14.8213079 L7.57825877,14.8213079 L7.57825877,14.8213079 L7.57825877,14.8213079 L7.57825877,14.8213079 Z M12.5712381,24.8161262 C12.5712381,25.2104242 12.8902213,25.5294096 13.2845215,25.5294096 L14.7110861,25.5294096 C15.1053841,25.5294096 15.4243695,25.2104264 15.4243695,24.8161262 C15.4243695,24.4218281 15.1053863,24.1028428 14.7110861,24.1028428 L13.2845215,24.1028428 C12.8902235,24.1028428 12.5712381,24.4218259 12.5712381,24.8161262 L12.5712381,24.8161262 L12.5712381,24.8161262 L12.5712381,24.8161262 L12.5712381,24.8161262 Z M11.1446735,22.6718484 C11.1446735,23.0661465 11.4636567,23.3851318 11.8579569,23.3851318 L16.1420848,23.3851318 C16.5363829,23.3851318 16.8553682,23.0661487 16.8553682,22.6718484 C16.8553682,22.2775504 16.5363851,21.958565 16.1420848,21.958565 L11.8579569,21.958565 C11.4636589,21.958565 11.1446735,22.2775482 11.1446735,22.6718484 L11.1446735,22.6718484 L11.1446735,22.6718484 L11.1446735,22.6718484 Z" id="形状" fill="#FFFFFF" fill-rule="nonzero"></path>
                    <path d="M28,2.48689958e-14 L28,4.44496874 L28,8.89234926 C28,16.6243358 21.7319865,22.8923515 14,22.8923515 C6.2680135,22.8923515 0,16.6243358 0,8.89234926 C0,7.33429166 0,5.77623406 0,4.21817646 C0,0.560547785 0,3.65762868 0,2.48689958e-14" id="矩形" stroke="#FFFFFF" stroke-width="1.5" stroke-linecap="round" stroke-linejoin="round" transform="translate(14.000000, 11.446176) scale(1, -1) translate(-14.000000, -11.446176) "></path>
                </g>
            </g>
        </g>
    </g>
</svg>