<?xml version="1.0" encoding="UTF-8"?>
<svg width="56px" height="56px" viewBox="0 0 56 56" version="1.1" xmlns="http://www.w3.org/2000/svg" xmlns:xlink="http://www.w3.org/1999/xlink">
    <!-- Generator: Sketch 61.2 (89653) - https://sketch.com -->
    <title>Oven</title>
    <desc>Created with Sketch.</desc>
    <g id="D-设备控制、设备属性" stroke="none" stroke-width="1" fill="none" fill-rule="evenodd">
        <g id="icon" transform="translate(-335.000000, -509.000000)">
            <g id="Oven" transform="translate(335.000000, 509.000000)">
                <circle id="Oval-13-Copy-10备份" stroke="#D7D7D7" fill="#FFFFFF" cx="28" cy="28" r="27.5"></circle>
                <path d="M23.3846293,28.922966 L19.6922245,28.922966 C17.6541417,28.922966 16,30.5771076 16,32.6153707 L16,36.3075952 C16,38.3458583 17.6541417,40 19.6922245,40 L23.3846293,40 C25.4227121,40 27.0768537,38.3458583 27.0768537,36.3075952 L27.0768537,32.6153707 C27.0768537,30.5771076 25.4227121,28.922966 23.3846293,28.922966 Z M25.2307415,36.3075952 C25.2307415,37.3284936 24.4054916,38.1537075 23.3846293,38.1537075 L19.6922245,38.1537075 C18.6713622,38.1537075 17.8461122,37.3284936 17.8461122,36.3075952 L17.8461122,32.6153707 C17.8461122,31.5944724 18.6713622,30.7692585 19.6922245,30.7692585 L23.3846293,30.7692585 C24.4054916,30.7692585 25.2307415,31.5944724 25.2307415,32.6153707 L25.2307415,36.3075952 Z M36.3075952,16 L32.6153707,16 C30.5771076,16 28.922966,17.6541417 28.922966,19.6922245 L28.922966,23.3846293 C28.922966,25.4227121 30.5771076,27.0768537 32.6153707,27.0768537 L36.3075952,27.0768537 C38.3458583,27.0768537 40,25.4227121 40,23.3846293 L40,19.6922245 C40,17.6541417 38.3458583,16 36.3075952,16 Z M38.1537075,23.3846293 C38.1537075,24.4054916 37.3266547,25.2307415 36.3075952,25.2307415 L32.6153707,25.2307415 C31.5944724,25.2307415 30.7692585,24.4054916 30.7692585,23.3846293 L30.7692585,19.6922245 C30.7692585,18.6713622 31.5944724,17.8461122 32.6153707,17.8461122 L36.3075952,17.8461122 C37.3266547,17.8461122 38.1537075,18.6713622 38.1537075,19.6922245 L38.1537075,23.3846293 Z M23.3846293,16 L19.6922245,16 C17.6541417,16 16,17.6541417 16,19.6922245 L16,23.3846293 C16,25.4227121 17.6541417,27.0768537 19.6922245,27.0768537 L23.3846293,27.0768537 C25.4227121,27.0768537 27.0768537,25.4227121 27.0768537,23.3846293 L27.0768537,19.6922245 C27.0768537,17.6541417 25.4227121,16 23.3846293,16 Z M25.2307415,23.3846293 C25.2307415,24.4054916 24.4054916,25.2307415 23.3846293,25.2307415 L19.6922245,25.2307415 C18.6713622,25.2307415 17.8461122,24.4054916 17.8461122,23.3846293 L17.8461122,19.6922245 C17.8461122,18.6713622 18.6713622,17.8461122 19.6922245,17.8461122 L23.3846293,17.8461122 C24.4054916,17.8461122 25.2307415,18.6713622 25.2307415,19.6922245 L25.2307415,23.3846293 Z M36.3075952,28.922966 L32.6153707,28.922966 C30.5771076,28.922966 28.922966,30.5771076 28.922966,32.6153707 L28.922966,36.3075952 C28.922966,38.3458583 30.5771076,40 32.6153707,40 L36.3075952,40 C38.3458583,40 40,38.3458583 40,36.3075952 L40,32.6153707 C40,30.5771076 38.3458583,28.922966 36.3075952,28.922966 Z M38.1537075,36.3075952 C38.1537075,37.3284936 37.3266547,38.1537075 36.3075952,38.1537075 L32.6153707,38.1537075 C31.5944724,38.1537075 30.7692585,37.3284936 30.7692585,36.3075952 L30.7692585,32.6153707 C30.7692585,31.5944724 31.5944724,30.7692585 32.6153707,30.7692585 L36.3075952,30.7692585 C37.3266547,30.7692585 38.1537075,31.5944724 38.1537075,32.6153707 L38.1537075,36.3075952 Z" id="moshi" fill="#E53F5B"></path>
            </g>
        </g>
    </g>
</svg>