<?xml version="1.0" encoding="UTF-8"?>
<svg width="56px" height="56px" viewBox="0 0 56 56" version="1.1" xmlns="http://www.w3.org/2000/svg" xmlns:xlink="http://www.w3.org/1999/xlink">
    <!-- Generator: Sketch 61.2 (89653) - https://sketch.com -->
    <title>Booster-on</title>
    <desc>Created with Sketch.</desc>
    <g id="D-设备控制、设备属性" stroke="none" stroke-width="1" fill="none" fill-rule="evenodd">
        <g id="icon" transform="translate(-411.000000, -585.000000)">
            <g id="Booster-on" transform="translate(411.000000, 585.000000)">
                <circle id="Oval-13-Copy-9备份-9" stroke="#E53F5B" fill="#E53F5B" cx="28" cy="28" r="27.5"></circle>
                <g id="编组-5备份" transform="translate(15.000000, 16.000000)" fill="#FFFFFF">
                    <path d="M13.5234179,0 C15.1003942,0 16.6417486,0.314239175 18.0654458,0.913159759 C21.0119064,2.13339993 23.3577311,4.47446485 24.5740656,7.40904404 C25.1825457,8.86593384 25.5,10.4234335 25.5,12.018956 C25.5,13.5984743 25.1805147,15.1567829 24.5746479,16.5936934 C23.3459661,19.5751829 20.9521201,21.9449503 17.9530034,23.1528508 C16.5479368,23.7194593 15.0272272,24.016688 13.481044,24.016688 C11.8893158,24.016688 10.3366283,23.7057221 8.89402966,23.108439 C5.94595124,21.8948416 3.58922301,19.5417273 2.37473967,16.5936682 C1.77764564,15.1446249 1.4620879,13.5887159 1.4620879,12.018956 C1.4620879,10.8656991 1.62791673,9.72872431 1.95415455,8.61760511 L2.067,8.255 L1.68237602,8.25542198 C0.79677628,8.25542198 0.079210866,7.59729023 0.00613084938,6.73194911 L0,6.58588431 L0,1.66545611 C0,0.79082752 0.674621742,0.0786315502 1.53699261,0.00608634734 L1.68237602,0 L13.5234179,0 Z M23.1883785,7.98338838 C22.1245164,5.4166703 20.0709303,3.36725106 17.4876596,2.29740889 C16.367739,1.82629089 15.167344,1.55728409 13.9352304,1.50819391 L13.5234179,1.5 L1.68237602,1.5 C1.5971807,1.5 1.53157724,1.54795547 1.50874367,1.61348681 L1.5,1.66545611 L1.5,6.58588431 C1.5,6.66690344 1.54454004,6.72679607 1.62010055,6.74751236 L1.68237602,6.75542198 L4.33495835,6.75542198 L3.7625578,7.97964838 C3.23685648,9.26756665 2.9620879,10.6303181 2.9620879,12.018956 C2.9620879,13.3902276 3.23832729,14.752271 3.76163672,16.0222519 C4.82366638,18.6002422 6.88647947,20.659892 9.46643313,21.7219499 C10.72916,22.2447587 12.086933,22.516688 13.481044,22.516688 C14.834282,22.516688 16.1645977,22.2566726 17.3923133,21.7615828 C20.0176293,20.7042313 22.1132119,18.6297272 23.1901375,16.0165505 C23.7211088,14.7572109 24,13.3969028 24,12.018956 C24,10.7631196 23.7752723,9.53497337 23.3414775,8.3708722 L23.1891574,7.98526039 L23.816,7.723 L23.1883785,7.98338838 Z" id="Fill-1" fill-rule="nonzero"></path>
                    <path d="M13.25,5 C9.24593556,5 6,8.24593556 6,12.25 C6,16.2540644 9.24593556,19.5 13.25,19.5 C17.2540644,19.5 20.5,16.2540644 20.5,12.25 C20.5,8.24593556 17.2540644,5 13.25,5 Z M13.25,6.5 C16.4256373,6.5 19,9.07436269 19,12.25 C19,15.4256373 16.4256373,18 13.25,18 C10.0743627,18 7.5,15.4256373 7.5,12.25 C7.5,9.07436269 10.0743627,6.5 13.25,6.5 Z" id="椭圆形" fill-rule="nonzero"></path>
                    <path d="M13.25,5.5 C13.6296958,5.5 13.943491,5.78215388 13.9931534,6.14822944 L14,6.25 L14,18.25 C14,18.6642136 13.6642136,19 13.25,19 C12.8703042,19 12.556509,18.7178461 12.5068466,18.3517706 L12.5,18.25 L12.5,6.25 C12.5,5.83578644 12.8357864,5.5 13.25,5.5 Z" id="直线" fill-rule="nonzero"></path>
                    <path d="M13.25,5.5 C13.6296958,5.5 13.943491,5.78215388 13.9931534,6.14822944 L14,6.25 L14,18.25 C14,18.6642136 13.6642136,19 13.25,19 C12.8703042,19 12.556509,18.7178461 12.5068466,18.3517706 L12.5,18.25 L12.5,6.25 C12.5,5.83578644 12.8357864,5.5 13.25,5.5 Z" id="直线" fill-rule="nonzero" transform="translate(13.250000, 12.250000) rotate(45.000000) translate(-13.250000, -12.250000) "></path>
                    <path d="M13.25,5.5 C13.6296958,5.5 13.943491,5.78215388 13.9931534,6.14822944 L14,6.25 L14,18.25 C14,18.6642136 13.6642136,19 13.25,19 C12.8703042,19 12.556509,18.7178461 12.5068466,18.3517706 L12.5,18.25 L12.5,6.25 C12.5,5.83578644 12.8357864,5.5 13.25,5.5 Z" id="直线" fill-rule="nonzero" transform="translate(13.250000, 12.250000) rotate(90.000000) translate(-13.250000, -12.250000) "></path>
                    <path d="M13.25,5.5 C13.6296958,5.5 13.943491,5.78215388 13.9931534,6.14822944 L14,6.25 L14,18.25 C14,18.6642136 13.6642136,19 13.25,19 C12.8703042,19 12.556509,18.7178461 12.5068466,18.3517706 L12.5,18.25 L12.5,6.25 C12.5,5.83578644 12.8357864,5.5 13.25,5.5 Z" id="直线" fill-rule="nonzero" transform="translate(13.250000, 12.250000) rotate(125.000000) translate(-13.250000, -12.250000) "></path>
                    <circle id="椭圆形" stroke="#E53F5B" stroke-width="1.5" cx="13.25" cy="12.25" r="2.5"></circle>
                </g>
            </g>
        </g>
    </g>
</svg>