<?xml version="1.0" encoding="UTF-8"?>
<svg width="56px" height="56px" viewBox="0 0 56 56" version="1.1" xmlns="http://www.w3.org/2000/svg" xmlns:xlink="http://www.w3.org/1999/xlink">
    <!-- Generator: Sketch 61.2 (89653) - https://sketch.com -->
    <title>switch</title>
    <desc>Created with Sketch.</desc>
    <g id="D-设备控制、设备属性" stroke="none" stroke-width="1" fill="none" fill-rule="evenodd">
        <g id="icon" transform="translate(-107.000000, -509.000000)">
            <g id="switch" transform="translate(107.000000, 509.000000)">
                <circle id="Oval-13-Copy-9备份-4" stroke="#E53F5B" fill="#E53F5B" cx="28" cy="28" r="27.5"></circle>
                <path d="M22.7384808,19.1372344 L22.7384806,19.1372345 C23.2427053,18.8636852 23.8795075,19.0394062 24.1608175,19.529717 C24.4355802,20.0086141 24.2702159,20.6131111 23.7870705,20.8959623 L23.7870698,20.8959627 C19.2892277,23.4266653 17.7527762,29.0237894 20.3552734,33.3975091 C22.9577951,37.7712287 28.7137608,39.2652804 33.2116029,36.7346016 C37.709445,34.203899 39.2458965,28.606775 36.6433992,24.2330553 C35.8227888,22.8539578 34.6460441,21.7071419 33.229637,20.9061367 L33.229637,20.9061368 C32.7307736,20.623164 32.5622699,20.0005182 32.8532732,19.5154214 C33.1442764,19.0303246 33.7845924,18.866471 34.2834558,19.1494437 L34.2834563,19.149444 C37.8243884,21.1514017 40.0021286,24.8344409 40,28.8173554 C40,34.9932294 34.8511384,40 28.5,40 C22.1488584,40 17,34.9932294 17,28.8173554 C17,24.7834756 19.2163641,21.1236984 22.7384951,19.1372447 L22.7384808,19.1372344 Z M28.4999841,16 L28.4999841,16 C29.1969531,16 29.5454401,16.3388677 29.5454401,17.0166056 L29.5454401,23.1162342 C29.5454401,23.7939697 29.1969556,24.1328398 28.4999841,24.1328398 L28.4999841,24.1328398 C27.8030151,24.1328398 27.4545281,23.7939721 27.4545281,23.1162342 L27.4545281,17.0166056 C27.4545281,16.3388701 27.8030126,16 28.4999841,16 Z" id="形状" fill="#FFFFFF" fill-rule="nonzero"></path>
            </g>
        </g>
    </g>
</svg>