<?xml version="1.0" encoding="UTF-8"?>
<svg width="56px" height="56px" viewBox="0 0 56 56" version="1.1" xmlns="http://www.w3.org/2000/svg" xmlns:xlink="http://www.w3.org/1999/xlink">
    <!-- Generator: Sketch 61.2 (89653) - https://sketch.com -->
    <title>Clean-on</title>
    <desc>Created with Sketch.</desc>
    <g id="D-设备控制、设备属性" stroke="none" stroke-width="1" fill="none" fill-rule="evenodd">
        <g id="icon" transform="translate(-637.000000, -585.000000)">
            <g id="Clean-on" transform="translate(637.000000, 585.000000)">
                <circle id="Oval-13-Copy-10备份-3" stroke="#E53F5B" fill="#E53F5B" cx="28" cy="28" r="27.5"></circle>
                <path d="M20.8992876,30.3364972 C22.9834421,29.7631353 25.1447825,30.5019072 26.5894272,31.1084103 C26.6996467,31.1636008 26.8429804,31.2187105 26.9973792,31.2738202 L26.9973792,31.2738202 L27.0194554,31.2848583 C28.4309858,31.8472898 31.011397,32.8618256 30.7688012,34.8135768 L30.7688012,34.8135768 L37.4403354,33.4683018 C38.3224679,33.2697507 39.2267843,33.7881105 39.4803374,34.6702161 C39.7118952,35.4531672 39.3590799,36.3022931 38.6533147,36.6771846 L38.6533147,36.6771846 L31.8935295,40.2390174 C30.9562065,40.735301 29.8975991,41 28.8390186,41 C28.2765871,41 27.7141825,40.9228141 27.1627891,40.7793457 C25.3984434,40.3162033 23.060628,39.7207652 21.9689063,39.5442902 C19.818604,39.1804368 17.8777833,39.4119946 17.8557071,39.4119946 C17.4477821,39.4671043 17.0728636,39.1693987 17.0286843,38.7613391 C16.9736015,38.3534141 17.2713071,37.9784956 17.6793398,37.9343432 C17.7675908,37.9232782 19.8517452,37.6806824 22.2115291,38.0666389 C23.3693986,38.26519 25.7403283,38.8606281 27.5377076,39.3348087 C28.7618326,39.6546174 30.0630359,39.5112836 31.1877643,38.9157379 L31.1877643,38.9157379 L37.9475494,35.3539051 C38.0357735,35.3098335 38.0908832,35.1995333 38.0578766,35.0893138 C38.0247354,34.9679486 37.9034778,34.8907627 37.7821395,34.923877 L37.7821395,34.923877 L37.7600364,34.923877 L29.1918339,36.6552161 C28.7838011,36.7654356 28.3427349,36.7543705 27.9457403,36.6220749 L27.9457403,36.6220749 L25.6851378,35.8612269 C25.4977324,35.7950791 25.3433336,35.6626757 25.2551096,35.4863085 C25.1668856,35.3098335 25.1447825,35.1003519 25.2109303,34.9128389 C25.2771858,34.7254335 25.4094815,34.5710617 25.5859564,34.4828107 C25.7623237,34.3945867 25.9719129,34.3725105 26.1593183,34.4386583 L26.1593183,34.4386583 L28.4199477,35.1995333 C28.4971337,35.2216095 28.5853577,35.2436857 28.6735817,35.2326476 L28.6735817,35.2326476 L28.8390186,35.1995333 C28.8830902,35.1885759 28.9162045,35.1775378 28.949238,35.1554617 C29.1146479,35.0672376 29.2360132,34.923877 29.2800848,34.7363639 C29.5006045,33.8763345 27.4715597,33.0713072 26.4901651,32.6853507 C26.3247283,32.6192028 26.1593183,32.553055 26.0270227,32.4978376 C24.7809291,31.9795854 22.9393705,31.339968 21.3073204,31.7920724 C19.3664997,32.3324007 18.1644777,33.0823453 18.1535473,33.0933834 C17.9881104,33.2036028 17.7895593,33.2367171 17.5911158,33.1925647 C17.3925646,33.1484931 17.2272355,33.0272356 17.1169353,32.8618256 C16.8963887,32.5088757 16.9956777,32.0457333 17.348493,31.8252136 C17.4036027,31.7920724 18.7269092,30.9429734 20.8992876,30.3364972 Z M35.0486099,19.6097273 C36.0329625,19.6097273 39.5607809,24.787714 39.5607809,26.8226261 C39.5607809,29.3159917 37.5434197,31.3413411 35.0486099,31.3413411 C32.5537287,31.3413411 30.5364627,29.3159917 30.5364627,26.8226261 C30.5364627,24.787714 34.0642812,19.6097273 35.0486099,19.6097273 Z M35.0388216,20.9633751 C34.6281212,21.4155366 34.0022943,22.2216993 33.3275738,23.342287 C32.3398922,24.9840365 31.8901104,26.2422648 31.8901104,26.7142023 C31.8901104,28.5229204 33.3079735,29.9876933 35.0486337,29.9876933 C36.7891746,29.9876933 38.2071332,28.5229204 38.2071332,26.7142023 C38.2071332,26.2422648 37.7572798,24.9840365 36.7696698,23.342287 C36.085185,22.2216993 35.4495459,21.4056965 35.0388216,20.9633751 Z M27.1523899,25.0243183 C28.2772438,25.0243183 29.1828149,25.9288542 29.1828149,27.0548251 C29.1828149,28.1807256 28.2772438,29.0852615 27.1523899,29.0852615 C26.0274429,29.0852615 25.1218717,28.1807256 25.1218717,27.0548251 C25.1218717,25.9288542 26.0274429,25.0243183 27.1523899,25.0243183 Z M27.1523999,26.377966 C26.7814659,26.377966 26.4755194,26.682997 26.4755194,27.0548248 C26.4755194,27.4265828 26.7814659,27.7316138 27.1523999,27.7316138 C27.5232434,27.7316138 27.8291672,27.4265828 27.8291672,27.0548248 C27.8198865,26.682997 27.5232434,26.377966 27.1523999,26.377966 Z M28.9571947,16 C30.829435,16 32.3413263,17.4142715 32.3413263,19.1584654 C32.3413263,20.9027282 30.829435,22.3170228 28.9571947,22.3170228 C27.0849789,22.3170228 25.5730876,20.9027282 25.5730876,19.1584654 C25.5730876,17.4142715 27.0949031,16 28.9571947,16 Z M28.9571945,17.3536477 C27.8393792,17.3536477 26.9267354,18.1589026 26.9267354,19.1584662 C26.9267354,20.1580976 27.8393792,20.9633751 28.9571945,20.9633751 C30.0749346,20.9633751 30.9876786,20.1580976 30.9876786,19.1584662 C30.9876786,18.1589026 30.0749346,17.3536477 28.9571945,17.3536477 Z" id="形状结合备份" fill="#FFFFFF"></path>
            </g>
        </g>
    </g>
</svg>