<?xml version="1.0" encoding="UTF-8"?>
<svg width="16px" height="16px" viewBox="0 0 16 16" version="1.1" xmlns="http://www.w3.org/2000/svg" xmlns:xlink="http://www.w3.org/1999/xlink">
    <!-- Generator: Sketch 61.2 (89653) - https://sketch.com -->
    <title>报警</title>
    <desc>Created with Sketch.</desc>
    <g id="D-设备控制、设备属性" stroke="none" stroke-width="1" fill="none" fill-rule="evenodd">
        <g id="icon" transform="translate(-767.000000, -400.000000)" fill="#F04E5E" fill-rule="nonzero">
            <path d="M775,400 C770.584,400 767,403.584 767,408 C767,412.416 770.584,416 775,416 C779.416,416 783,412.416 783,408 C783,403.584 779.416,400 775,400 Z M775,412.8 C774.544,412.8 774.184,412.432 774.184,411.984 C774.184,411.528 774.552,411.168 775,411.168 C775.456,411.168 775.816,411.536 775.816,411.984 C775.816,412.432 775.456,412.8 775,412.8 Z M775.888,403.672 L775.72,409.496 C775.712,409.8 775.4,410.04 775.032,410.04 L774.904,410.04 C774.536,410.04 774.224,409.8 774.216,409.496 L774.04,403.672 C774.024,403.208 774.4,402.816 774.88,402.816 L775.048,402.816 C775.528,402.816 775.904,403.208 775.888,403.672 Z" id="报警"></path>
        </g>
    </g>
</svg>